Coordinates
version=1
nRows=17
nColumns=40
inDegrees=yes

Units are S.I. units (second, meters, Newtons, ...)
Angles are in degrees.

endheader
time	pelvis_tilt	pelvis_list	pelvis_rotation	pelvis_tx	pelvis_ty	pelvis_tz	hip_flexion_r	hip_adduction_r	hip_rotation_r	knee_angle_r	knee_angle_r_beta	ankle_angle_r	subtalar_angle_r	mtp_angle_r	hip_flexion_l	hip_adduction_l	hip_rotation_l	knee_angle_l	knee_angle_l_beta	ankle_angle_l	subtalar_angle_l	mtp_angle_l	lumbar_extension	lumbar_bending	lumbar_rotation	arm_flex_r	arm_add_r	arm_rot_r	elbow_flex_r	pro_sup_r	wrist_flex_r	wrist_dev_r	arm_flex_l	arm_add_l	arm_rot_l	elbow_flex_l	pro_sup_l	wrist_flex_l	wrist_dev_l
     49.19342857	     -5.28326342	     -6.13643759	      6.30784910	      1.04839908	      0.92243230	      0.47450730	      2.00909161	      3.98613174	    -20.12691838	      9.85863873	      9.85863873	     13.87834187	      1.40366516	     -5.51756352	     29.03945565	     -7.79379238	      0.35596968	     23.22018462	     23.22018462	      4.29217881	    -10.16090151	      4.62322745	     -9.47740608	      6.06492349	      4.42010861	     39.04202243	    -17.63710224	     -7.40569339	     88.83561955	     44.45996335	      0.00000000	      0.00000000	     -3.90945468	     -8.15758443	    -13.53018521	     26.46601244	     47.43500751	      0.00000000	      0.00000000
     49.20685714	     -5.23840942	     -6.13728787	      6.23772199	      1.04993797	      0.92225391	      0.47188082	      1.53815274	      3.81209989	    -19.95879151	     10.01257331	     10.01257331	     14.03215291	      1.41884005	     -5.52556764	     28.60746255	     -7.64415310	      0.54168480	     23.65192852	     23.65192852	      4.67577495	    -10.44105970	      4.42801237	     -9.35203650	      5.96856403	      4.29902662	     38.24987944	    -17.31081372	     -7.26695843	     88.63335088	     44.46123841	      0.00000000	      0.00000000	     -3.67699890	     -8.25019288	    -13.54531433	     26.54408626	     47.43915394	      0.00000000	      0.00000000
     49.22028571	     -5.18277445	     -6.12458427	      6.18168030	      1.05139385	      0.92231196	      0.46907138	      1.09140453	      3.59461892	    -19.81452611	     10.21985088	     10.21985088	     14.10971639	      1.41880071	     -5.49434475	     28.23994599	     -7.46740559	      0.75817986	     24.10569125	     24.10569125	      5.08947277	    -10.80292392	      4.24319963	     -9.27513412	      5.87781387	      4.14100339	     37.32434061	    -17.00180825	     -7.16828883	     88.33253139	     44.46623752	      0.00000000	      0.00000000	     -3.37857948	     -8.33089999	    -13.55449298	     26.66073719	     47.44349554	      0.00000000	      0.00000000
     49.23371429	     -5.09799645	     -6.09861742	      6.14408223	      1.05270108	      0.92262036	      0.46596555	      0.68199790	      3.31964277	    -19.71102722	     10.53987543	     10.53987543	     14.14258873	      1.38367254	     -5.42462203	     27.91157629	     -7.25250512	      0.99241194	     24.59803595	     24.59803595	      5.48754860	    -11.26814974	      4.11073887	     -9.25222159	      5.80438027	      4.00728793	     36.19634212	    -16.70981658	     -7.11513019	     87.84839206	     44.47838419	      0.00000000	      0.00000000	     -2.99789360	     -8.41445556	    -13.56291521	     26.82997227	     47.44832613	      0.00000000	      0.00000000
     49.24714286	     -5.16942333	     -6.01600752	      6.05162340	      1.05369475	      0.92291370	      0.46265625	      0.73484948	      2.82922988	    -19.65006009	     11.43581507	     11.43581507	     14.41561389	      1.34042678	     -5.01540752	     27.71263558	     -6.87127846	      1.46056833	     24.98145478	     24.98145478	      5.88568524	    -12.27872077	      4.54434746	     -9.05822640	      5.65095288	      4.23886097	     34.99385194	    -16.70472705	     -7.71165863	     86.50136880	     44.55242495	      0.00000000	      0.00000000	     -2.38780798	     -8.44134364	    -13.58174289	     27.17796969	     47.44222034	      0.00000000	      0.00000000
     49.26057143	     -5.10809710	     -5.95010858	      5.95771654	      1.05476315	      0.92352502	      0.45924979	      0.61637324	      2.37582345	    -19.58492235	     12.25173897	     12.25173897	     14.51367606	      1.29424902	     -4.80021258	     27.38131371	     -6.62941973	      1.54313132	     25.37952556	     25.37952556	      6.41806990	    -12.61861026	      4.71571475	     -9.03431963	      5.56111299	      4.25535173	     33.74313049	    -16.54864496	     -7.83920939	     85.42856598	     44.59679218	      0.00000000	      0.00000000	     -1.82620168	     -8.47591101	    -13.54939996	     27.49403644	     47.43244496	      0.00000000	      0.00000000
     49.27400000	     -5.06322148	     -5.91421097	      5.82103875	      1.05568410	      0.92419380	      0.45577521	      0.68650648	      1.88586134	    -19.48945288	     13.36170435	     13.36170435	     14.57510549	      1.17773202	     -4.69073148	     27.03134023	     -6.44241817	      1.52390339	     25.70323574	     25.70323574	      6.99899073	    -12.81026554	      4.96295991	     -9.01732508	      5.52437446	      4.35598468	     32.45454105	    -16.45058036	     -7.88076647	     84.05142483	     44.64858341	      0.00000000	      0.00000000	     -1.20336049	     -8.46465423	    -13.46821459	     27.92677946	     47.41384240	      0.00000000	      0.00000000
     49.28742857	     -5.01043663	     -5.89597858	      5.64022514	      1.05652918	      0.92494806	      0.45229253	      0.91119682	      1.35127337	    -19.37861302	     14.77406313	     14.77406313	     14.74174882	      1.03397732	     -4.32490140	     26.68447134	     -6.30545697	      1.39162510	     26.09229635	     26.09229635	      7.99986000	    -12.75027488	      6.13834658	     -8.96153232	      5.51436928	      4.14384633	     31.55450593	    -15.98791899	     -7.76771843	     81.61899310	     44.75871870	      0.00000000	      0.00000000	     -0.89848120	     -8.55785857	    -13.03827333	     28.69538001	     47.29146252	      0.00000000	      0.00000000
     49.30085714	     -4.91967168	     -5.84946524	      5.38627616	      1.05733581	      0.92571495	      0.44886676	      1.27959414	      0.73150081	    -19.12200060	     16.49830471	     16.49830471	     14.65902361	      0.62701816	     -4.70565853	     26.16685625	     -6.21068652	      1.01865737	     26.25959150	     26.25959150	      8.51522868	    -12.63803111	      6.03360201	     -9.01963667	      5.47400665	      4.39260005	     30.05511607	    -16.12187725	     -7.49746926	     80.22631348	     44.79618974	      0.00000000	      0.00000000	     -0.20896355	     -8.55975495	    -12.95828537	     29.30918530	     47.27922939	      0.00000000	      0.00000000
     49.31428571	     -4.88071152	     -5.84172586	      5.07222855	      1.05799617	      0.92635488	      0.44554211	      1.94617775	      0.08019910	    -18.75804361	     18.62718019	     18.62718019	     14.47580115	      0.04565933	     -5.30208025	     25.66551827	     -6.17762115	      0.59578829	     26.36518600	     26.36518600	      9.06956214	    -12.43819627	      5.92199617	     -9.00994066	      5.46701154	      4.65377619	     28.63908429	    -16.19403454	     -7.16443067	     78.41901683	     44.84566244	      0.00000000	      0.00000000	      0.43503417	     -8.55404538	    -12.82003252	     30.03363653	     47.25660851	      0.00000000	      0.00000000
     49.32771429	     -4.82007382	     -5.82648321	      4.72484671	      1.05853743	      0.92696276	      0.44232215	      2.81850281	     -0.62842642	    -18.26187881	     21.14043416	     21.14043416	     14.15832088	     -0.72951888	     -6.11513553	     25.11198011	     -6.16755388	      0.06115356	     26.42937394	     26.42937394	      9.59591362	    -12.14679591	      5.78105461	     -9.03106064	      5.44308848	      4.83615914	     27.27447165	    -16.18964711	     -6.72392692	     76.36167253	     44.89948010	      0.00000000	      0.00000000	      1.03850332	     -8.58715563	    -12.63814401	     30.85827613	     47.22772340	      0.00000000	      0.00000000
     49.34114286	     -4.79941851	     -5.82432520	      4.34395150	      1.05896320	      0.92741618	      0.43919633	      3.95845019	     -1.35504524	    -17.62554927	     24.00032775	     24.00032775	     13.60881803	     -1.79188212	     -7.21962412	     24.58067928	     -6.18928057	     -0.56721590	     26.45830884	     26.45830884	     10.11680947	    -11.79578275	      5.59523901	     -8.97003009	      5.45253671	      4.94181117	     26.03729269	    -16.13062931	     -6.09943859	     73.89937041	     44.96176985	      0.00000000	      0.00000000	      1.53174465	     -8.67853835	    -12.36629240	     31.87715670	     47.18345854	      0.00000000	      0.00000000
     49.35457143	     -4.62275975	     -5.77429653	      3.96362926	      1.05936029	      0.92798774	      0.43616300	      5.10733602	     -2.15386699	    -16.93424536	     27.15093628	     27.15093628	     12.93864427	     -2.85661375	     -8.18912101	     23.85883828	     -6.16808772	     -1.16501930	     26.46843143	     26.46843143	     10.62092542	    -11.49261180	      5.35419442	     -9.17142303	      5.41291906	      4.97334304	     24.70707991	    -15.97678460	     -5.52139315	     71.93292974	     45.00556360	      0.00000000	      0.00000000	      2.14265367	     -8.80597461	    -12.17797709	     32.74253733	     47.15974774	      0.00000000	      0.00000000
     49.36800000	     -4.57350013	     -5.70971274	      3.55671923	      1.05950966	      0.92823094	      0.43334054	      6.65972696	     -2.96213174	    -16.02861413	     30.67293102	     30.67293102	     11.99100285	     -4.20893593	     -9.26760515	     23.27282224	     -6.12320814	     -1.77767698	     26.44831251	     26.44831251	     11.12530894	    -11.16199996	      5.04710995	     -9.18050485	      5.31054150	      5.05733905	     23.37143402	    -15.89070291	     -4.82937847	     69.60825497	     45.05736478	      0.00000000	      0.00000000	      2.72250416	     -8.95919723	    -11.93536284	     33.75596123	     47.12940603	      0.00000000	      0.00000000
     49.38142857	     -4.45439390	     -5.63300674	      3.18748858	      1.05959071	      0.92847318	      0.43055921	      8.25783085	     -3.74285668	    -15.05349906	     34.31052028	     34.31052028	     10.78494789	     -5.65209566	    -10.22496843	     22.64942914	     -6.05510331	     -2.35613487	     26.47082225	     26.47082225	     11.57142119	    -10.88648351	      4.73121178	     -9.28407811	      5.22855982	      5.02454976	     22.04171891	    -15.74203484	     -4.10366004	     67.30758084	     45.10642433	      0.00000000	      0.00000000	      3.33717627	     -9.16515019	    -11.67135532	     34.76995639	     47.09946142	      0.00000000	      0.00000000
     49.39485714	     -4.29847266	     -5.77275496	      2.84242944	      1.05961172	      0.92874335	      0.42815100	      9.78020739	     -4.01229928	    -13.70959097	     37.54567611	     37.54567611	      8.23051713	     -8.49794415	    -13.42441355	     22.01746664	     -6.25769077	     -2.92621396	     26.48329385	     26.48329385	     11.95579056	    -10.43908488	      3.94556465	     -9.28518630	      5.34452894	      3.57360232	     23.00167636	    -14.83180073	     -1.09861425	     60.34792487	     45.25347546	      0.00000000	      0.00000000	      2.19731397	    -10.14272422	     -9.71482390	     37.99825007	     46.81667379	      0.00000000	      0.00000000
     49.40828571	     -4.09910762	     -5.62025535	      2.54631341	      1.05950701	      0.92892748	      0.42549254	     11.48374221	     -4.85966906	    -12.88214877	     41.33682503	     41.33682503	      6.84949290	     -9.40968058	    -13.67560348	     21.31891322	     -6.04625183	     -3.32757164	     26.48004898	     26.48004898	     12.36269312	    -10.40441831	      3.73869115	     -9.52324778	      5.20933429	      3.44958193	     21.22481374	    -14.69164762	     -0.64181902	     59.13758501	     45.27045517	      0.00000000	      0.00000000	      3.03222342	    -10.43379560	     -9.67359995	     38.69554443	     46.82397558	      0.00000000	      0.00000000
